<svg id="person_black_24dp" xmlns="http://www.w3.org/2000/svg" width="124" height="124" viewBox="0 0 124 124">
  <path id="Path_23" data-name="Path 23" d="M0,0H124V124H0Z" fill="none"/>
  <path id="Path_24" data-name="Path 24" d="M45.333,14.333A10.333,10.333,0,1,1,35,24.667,10.364,10.364,0,0,1,45.333,14.333m0,51.667c13.95,0,29.967,6.665,31,10.333h-62c1.188-3.72,17.1-10.333,31-10.333m0-62A20.667,20.667,0,1,0,66,24.667,20.661,20.661,0,0,0,45.333,4Zm0,51.667C31.538,55.667,4,62.59,4,76.333V86.667H86.667V76.333C86.667,62.59,59.128,55.667,45.333,55.667Z" transform="translate(16.667 16.667)" fill="#282828"/>
</svg>
