<svg xmlns="http://www.w3.org/2000/svg" width="126" height="125" viewBox="0 0 126 125">
  <g id="Group_9" data-name="Group 9" transform="translate(-227 -441)">
    <g id="Group_7" data-name="Group 7" transform="translate(227 440.5)">
      <rect id="Rectangle_26" data-name="Rectangle 26" width="126" height="125" transform="translate(0 0.5)" fill="none"/>
    </g>
    <g id="Group_8" data-name="Group 8" transform="translate(15.771 -2.417)">
      <path id="Path_19" data-name="Path 19" d="M42.833,15C28.871,15,1,22.007,1,35.917V46.375H84.667V35.917C84.667,22.007,56.8,15,42.833,15ZM11.458,35.917c1.15-3.765,17.309-10.458,31.375-10.458,14.119,0,30.329,6.746,31.375,10.458Z" transform="translate(231.229 503.937)" fill="#282828"/>
      <path id="Path_20" data-name="Path 20" d="M6.812,30.146h1.36a20.917,20.917,0,1,0,41.833,0h1.36a2.566,2.566,0,0,0,2.562-2.562v-.1a2.566,2.566,0,0,0-2.562-2.562h-1.36A20.9,20.9,0,0,0,39.547,6.876v4.968a2.615,2.615,0,0,1-5.229,0V4.732A21.391,21.391,0,0,0,29.089,4a21.391,21.391,0,0,0-5.229.732v7.112a2.615,2.615,0,0,1-5.229,0V6.876A20.9,20.9,0,0,0,8.172,24.917H6.812A2.566,2.566,0,0,0,4.25,27.479v.157A2.556,2.556,0,0,0,6.812,30.146Zm32.735,0a10.458,10.458,0,1,1-20.917,0Z" transform="translate(244.974 457.417)" fill="#282828"/>
    </g>
  </g>
</svg>
